<mxfile host="app.diagrams.net" modified="2023-05-24T06:39:33.318Z" agent="Mozilla/5.0 (Macintosh; Intel Mac OS X 10_15_7) AppleWebKit/537.36 (KHTML, like Gecko) Chrome/113.0.0.0 Safari/537.36" etag="zwkQ6sI4EJUkIgxQ1GNm" version="21.3.2" type="github">
  <diagram name="Page-1" id="e7e014a7-5840-1c2e-5031-d8a46d1fe8dd">
    <mxGraphModel dx="1386" dy="1058" grid="1" gridSize="10" guides="1" tooltips="1" connect="1" arrows="1" fold="1" page="1" pageScale="1" pageWidth="1169" pageHeight="826" background="none" math="0" shadow="0">
      <root>
        <mxCell id="0" />
        <mxCell id="1" parent="0" />
        <mxCell id="ihTrHQwXE9hTVhBriBCr-41" value="" style="rounded=1;whiteSpace=wrap;html=1;fillColor=none;" vertex="1" parent="1">
          <mxGeometry x="15" y="100" width="1140" height="620" as="geometry" />
        </mxCell>
        <mxCell id="ihTrHQwXE9hTVhBriBCr-42" value="Query device and sensor status" style="text;html=1;strokeColor=none;fillColor=none;align=center;verticalAlign=middle;whiteSpace=wrap;rounded=0;" vertex="1" parent="1">
          <mxGeometry x="472.5" y="160" width="225" height="30" as="geometry" />
        </mxCell>
        <mxCell id="ihTrHQwXE9hTVhBriBCr-48" style="edgeStyle=orthogonalEdgeStyle;rounded=0;orthogonalLoop=1;jettySize=auto;html=1;exitX=1;exitY=0.5;exitDx=0;exitDy=0;entryX=0;entryY=0.5;entryDx=0;entryDy=0;" edge="1" parent="1" source="ihTrHQwXE9hTVhBriBCr-43" target="ihTrHQwXE9hTVhBriBCr-47">
          <mxGeometry relative="1" as="geometry" />
        </mxCell>
        <mxCell id="ihTrHQwXE9hTVhBriBCr-43" value="" style="ellipse;fillColor=strokeColor;html=1;" vertex="1" parent="1">
          <mxGeometry x="55" y="390" width="30" height="30" as="geometry" />
        </mxCell>
        <mxCell id="ihTrHQwXE9hTVhBriBCr-44" value="" style="ellipse;html=1;shape=endState;fillColor=strokeColor;" vertex="1" parent="1">
          <mxGeometry x="1100" y="390" width="30" height="30" as="geometry" />
        </mxCell>
        <mxCell id="ihTrHQwXE9hTVhBriBCr-51" style="edgeStyle=orthogonalEdgeStyle;rounded=0;orthogonalLoop=1;jettySize=auto;html=1;entryX=0;entryY=0.5;entryDx=0;entryDy=0;" edge="1" parent="1" source="ihTrHQwXE9hTVhBriBCr-47" target="ihTrHQwXE9hTVhBriBCr-49">
          <mxGeometry relative="1" as="geometry" />
        </mxCell>
        <mxCell id="ihTrHQwXE9hTVhBriBCr-47" value="Display devices&lt;br&gt;and sesnors" style="html=1;align=center;verticalAlign=top;rounded=1;absoluteArcSize=1;arcSize=10;dashed=0;whiteSpace=wrap;" vertex="1" parent="1">
          <mxGeometry x="160" y="385" width="140" height="40" as="geometry" />
        </mxCell>
        <mxCell id="ihTrHQwXE9hTVhBriBCr-53" style="edgeStyle=orthogonalEdgeStyle;rounded=0;orthogonalLoop=1;jettySize=auto;html=1;exitX=1;exitY=0.5;exitDx=0;exitDy=0;" edge="1" parent="1" source="ihTrHQwXE9hTVhBriBCr-49" target="ihTrHQwXE9hTVhBriBCr-52">
          <mxGeometry relative="1" as="geometry" />
        </mxCell>
        <mxCell id="ihTrHQwXE9hTVhBriBCr-56" style="edgeStyle=orthogonalEdgeStyle;rounded=0;orthogonalLoop=1;jettySize=auto;html=1;exitX=0.5;exitY=1;exitDx=0;exitDy=0;entryX=0.5;entryY=1;entryDx=0;entryDy=0;" edge="1" parent="1" source="ihTrHQwXE9hTVhBriBCr-49" target="ihTrHQwXE9hTVhBriBCr-54">
          <mxGeometry relative="1" as="geometry">
            <Array as="points">
              <mxPoint x="435" y="500" />
              <mxPoint x="815" y="500" />
            </Array>
          </mxGeometry>
        </mxCell>
        <mxCell id="ihTrHQwXE9hTVhBriBCr-49" value="" style="rhombus;" vertex="1" parent="1">
          <mxGeometry x="420" y="390" width="30" height="30" as="geometry" />
        </mxCell>
        <mxCell id="ihTrHQwXE9hTVhBriBCr-50" value="Faulty devices exist?" style="text;html=1;strokeColor=none;fillColor=none;align=center;verticalAlign=middle;whiteSpace=wrap;rounded=0;" vertex="1" parent="1">
          <mxGeometry x="367.5" y="420" width="135" height="30" as="geometry" />
        </mxCell>
        <mxCell id="ihTrHQwXE9hTVhBriBCr-55" style="edgeStyle=orthogonalEdgeStyle;rounded=0;orthogonalLoop=1;jettySize=auto;html=1;exitX=1;exitY=0.5;exitDx=0;exitDy=0;entryX=0;entryY=0.5;entryDx=0;entryDy=0;" edge="1" parent="1" source="ihTrHQwXE9hTVhBriBCr-52" target="ihTrHQwXE9hTVhBriBCr-54">
          <mxGeometry relative="1" as="geometry" />
        </mxCell>
        <mxCell id="ihTrHQwXE9hTVhBriBCr-52" value="Remove faulty devices" style="html=1;align=center;verticalAlign=top;rounded=1;absoluteArcSize=1;arcSize=10;dashed=0;whiteSpace=wrap;" vertex="1" parent="1">
          <mxGeometry x="550" y="385" width="140" height="40" as="geometry" />
        </mxCell>
        <mxCell id="ihTrHQwXE9hTVhBriBCr-63" style="edgeStyle=orthogonalEdgeStyle;rounded=0;orthogonalLoop=1;jettySize=auto;html=1;exitX=1;exitY=0.5;exitDx=0;exitDy=0;entryX=0;entryY=0.5;entryDx=0;entryDy=0;" edge="1" parent="1" source="ihTrHQwXE9hTVhBriBCr-54" target="ihTrHQwXE9hTVhBriBCr-62">
          <mxGeometry relative="1" as="geometry" />
        </mxCell>
        <mxCell id="ihTrHQwXE9hTVhBriBCr-54" value="" style="rhombus;" vertex="1" parent="1">
          <mxGeometry x="800" y="390" width="30" height="30" as="geometry" />
        </mxCell>
        <mxCell id="ihTrHQwXE9hTVhBriBCr-59" style="edgeStyle=orthogonalEdgeStyle;orthogonalLoop=1;jettySize=auto;html=1;entryX=0.5;entryY=0;entryDx=0;entryDy=0;startArrow=none;startFill=0;curved=1;" edge="1" parent="1" source="ihTrHQwXE9hTVhBriBCr-57" target="ihTrHQwXE9hTVhBriBCr-49">
          <mxGeometry relative="1" as="geometry" />
        </mxCell>
        <mxCell id="ihTrHQwXE9hTVhBriBCr-57" value="noFaultyDevices &amp;gt; 0" style="shape=note2;boundedLbl=1;whiteSpace=wrap;html=1;size=25;verticalAlign=top;align=center;" vertex="1" parent="1">
          <mxGeometry x="270" y="270" width="160" height="60" as="geometry" />
        </mxCell>
        <mxCell id="ihTrHQwXE9hTVhBriBCr-58" value="&lt;&lt;DecisionInput&gt;&gt;" style="resizeWidth=1;part=1;strokeColor=none;fillColor=none;align=left;spacingLeft=5;" vertex="1" parent="ihTrHQwXE9hTVhBriBCr-57">
          <mxGeometry width="160" height="25" relative="1" as="geometry" />
        </mxCell>
        <mxCell id="ihTrHQwXE9hTVhBriBCr-60" value="&lt;font style=&quot;font-size: 10px;&quot;&gt;[true]&lt;/font&gt;" style="text;html=1;strokeColor=none;fillColor=none;align=center;verticalAlign=middle;whiteSpace=wrap;rounded=0;" vertex="1" parent="1">
          <mxGeometry x="460" y="380" width="60" height="30" as="geometry" />
        </mxCell>
        <mxCell id="ihTrHQwXE9hTVhBriBCr-61" value="[false]" style="text;html=1;strokeColor=none;fillColor=none;align=center;verticalAlign=middle;whiteSpace=wrap;rounded=0;" vertex="1" parent="1">
          <mxGeometry x="590" y="470" width="60" height="30" as="geometry" />
        </mxCell>
        <mxCell id="ihTrHQwXE9hTVhBriBCr-64" style="edgeStyle=orthogonalEdgeStyle;rounded=0;orthogonalLoop=1;jettySize=auto;html=1;entryX=0;entryY=0.5;entryDx=0;entryDy=0;" edge="1" parent="1" source="ihTrHQwXE9hTVhBriBCr-62" target="ihTrHQwXE9hTVhBriBCr-44">
          <mxGeometry relative="1" as="geometry" />
        </mxCell>
        <mxCell id="ihTrHQwXE9hTVhBriBCr-62" value="Remove faulty sensosrs" style="html=1;align=center;verticalAlign=top;rounded=1;absoluteArcSize=1;arcSize=10;dashed=0;whiteSpace=wrap;" vertex="1" parent="1">
          <mxGeometry x="900" y="385" width="140" height="40" as="geometry" />
        </mxCell>
      </root>
    </mxGraphModel>
  </diagram>
</mxfile>
